#
# OBJ File Generated by dpVision
#
#
# Object: abel500.obj
#
# Vertices: 500
# Faces: 1018
#
v -92.266991 8.301776 -34.884052
v 72.708473 37.633320 -6.422006
v 63.810349 56.689365 38.118053
v -107.452705 -39.263718 -42.248123
v -25.948166 -62.339394 74.952751
v 8.293264 21.929710 18.108000
v -96.373917 -157.794312 -49.784580
v 26.150269 56.009178 52.592392
v -1.229632 95.034050 -66.662918
v -12.829223 6.059311 -8.524403
v -119.821884 -65.008080 11.125494
v -79.622726 -3.779263 -0.056491
v 4.331994 -52.388569 -112.935913
v -49.475750 96.933205 -1.185853
v 13.834114 51.858742 39.315929
v -24.104561 67.157715 -68.365799
v 44.115871 148.240433 40.781158
v 0.166120 61.048965 41.984650
v -99.865898 3.311771 -18.217510
v -35.853901 -14.839959 8.034052
v -11.342730 -22.183950 9.172275
v 45.500607 62.476231 52.544167
v 80.442719 108.640060 50.410286
v -70.762772 -158.846802 60.008881
v 39.457966 -117.069611 -105.242096
v 51.801296 -113.912659 29.321156
v 4.077378 -27.178928 -111.319191
v 59.011017 -60.451668 11.576552
v 27.977272 -111.100243 64.198326
v 28.308836 -86.972214 87.473793
v 52.976723 -101.818390 73.611626
v -112.134087 -17.038675 -6.001500
v -26.104757 -157.183792 -88.877464
v 13.030971 -15.083680 -6.728691
v -46.553955 -157.753143 -7.895028
v 45.762043 -159.375214 7.545179
v 12.054394 -57.514549 15.221429
v -94.398125 -20.203667 -60.089272
v 57.664352 67.306328 -55.273861
v 13.669969 119.544418 63.012226
v -64.783417 -30.298553 -86.179710
v 82.209633 114.286942 -25.420385
v -22.981573 55.810539 20.723740
v -12.830698 32.816921 24.618807
v -99.057678 -71.574341 -57.973946
v -65.328102 -113.742760 43.719738
v 31.636309 163.507278 -29.904699
v 13.689788 6.432271 3.814807
v -92.022072 -117.411018 -60.900414
v 56.074829 156.976303 12.050929
v 23.033009 -44.230698 9.015938
v 41.325947 -115.043594 38.758701
v 69.891991 63.920559 -47.966927
v 73.878922 -120.724266 -47.401196
v -84.159660 -96.495346 35.725517
v 83.120758 -110.460388 -34.390251
v 87.120750 -112.489517 3.897619
v -10.031789 144.237335 26.885357
v -66.849968 -2.440825 -74.926048
v -123.705162 -131.430420 -23.957659
v -18.918669 -28.982159 50.012901
v -119.267067 -79.557510 -4.830458
v -15.272496 64.777092 41.359051
v -6.365745 -26.935591 40.321327
v -4.903093 -114.925583 65.855087
v -111.469902 -72.101250 4.602013
v -38.127617 -115.698502 88.487335
v -67.457642 -37.360264 31.001736
v 63.587154 -28.678993 -32.335320
v 18.608845 -105.223343 94.987724
v 71.400986 -113.648865 -32.842758
v 47.750656 -47.720268 -107.274086
v 8.249965 0.763422 -16.257404
v 67.857109 83.331497 63.312820
v -25.369305 -158.368469 67.872993
v 62.183338 -160.216354 -63.031384
v 75.553925 -39.887100 -28.848242
v 5.118949 9.048179 -10.243484
v -1.708780 -157.309799 11.902385
v -17.331619 -106.896965 113.681877
v -33.875916 -23.400036 -98.591942
v 23.605965 73.463470 66.163635
v 31.773371 -156.565842 -117.414711
v 24.804792 18.143061 5.403957
v 56.703979 5.780204 0.398825
v 15.791473 153.481750 -45.156517
v -7.764874 62.234596 37.330948
v -96.153397 -98.206093 -24.842346
v 84.784676 66.972343 26.095823
v -91.706642 -49.721207 37.352734
v 74.941841 64.079666 11.565593
v 8.260984 -87.260620 84.833733
v -42.509708 -157.651169 84.417313
v 69.072197 -12.655700 -2.740009
v 22.879856 -20.355011 -4.028480
v 97.045341 62.799789 1.581085
v -44.748352 65.912804 -63.853401
v 91.686958 110.277794 24.201117
v 23.735970 -139.150192 44.903175
v -90.723763 -117.186020 33.847855
v -81.729019 -51.358955 -75.693291
v -90.006615 -157.607941 26.473021
v -31.133030 -109.885117 101.018745
v 86.394798 92.548157 -34.347725
v 26.878248 19.423763 -24.849380
v 43.206760 45.720970 17.435522
v 26.573601 48.608006 33.784630
v 79.157745 127.022118 33.579468
v 76.626556 -88.364433 25.519348
v -75.600632 -92.287361 -77.421906
v -78.510765 -155.603897 -65.236565
v 49.135822 -14.184883 -31.560013
v 86.520927 -75.628670 -61.651295
v -41.641014 99.628082 -53.305473
v 46.802727 -160.171600 -90.617340
v -15.110800 19.462748 -6.789653
v 63.009319 46.685062 21.940037
v -9.735004 83.242233 64.400375
v 37.397148 -106.894356 84.563347
v 10.046909 -158.136368 5.996096
v -106.595634 -68.024277 -28.161417
v -32.880402 95.327553 38.623161
v 59.159294 -116.743095 66.643509
v -40.820755 90.113197 -39.180641
v 24.735886 -158.275360 -4.074554
v -63.476730 25.468050 -38.046398
v -120.200912 -126.898384 -42.927227
v 7.424401 -60.424637 55.439243
v 22.979647 23.839495 25.421865
v -17.951733 -90.273842 113.626595
v 50.669277 112.984528 70.808678
v -50.778988 -114.300568 72.669838
v -4.031329 -5.108341 -102.357132
v -107.870277 -63.645988 17.093616
v -70.498573 -56.186298 37.889851
v 18.010368 -159.933762 -118.065468
v 31.606689 170.252945 -0.344519
v -49.987476 54.075001 -58.739548
v -7.052335 -158.113464 42.321297
v 80.407074 -36.163960 -56.852318
v -31.164276 83.686684 52.027115
v -3.882087 -157.260284 -111.288757
v 56.858009 -118.841019 -77.534721
v 13.908006 101.164413 -74.033157
v -49.062286 -142.346832 96.551910
v 91.388428 110.849792 -6.782955
v -58.066448 -151.181641 90.798820
v 14.557433 -112.661331 -110.070358
v -91.516731 -77.861549 44.670391
v -40.629402 38.967022 -56.992764
v -10.967558 -49.218693 32.924343
v 13.686466 -113.429665 54.500839
v -15.600733 -74.827957 93.684662
v -26.796520 69.315788 38.577465
v 52.393532 -159.602676 -26.087736
v 3.873200 28.246033 30.115196
v -24.926819 40.436325 -12.223408
v -57.318611 89.676544 -16.154406
v -81.198616 -159.139175 36.159302
v 66.078781 -97.427338 63.757065
v -73.265617 -111.071869 -72.424217
v 92.774353 -55.615005 -50.259575
v 25.549526 26.031981 -74.483276
v 61.239403 52.926968 -52.976643
v -1.284605 -156.436737 54.802654
v -114.674149 -157.660522 -31.554777
v -43.581947 80.466690 -23.721287
v 86.860435 -43.856720 -11.171276
v 18.610353 -120.142967 -130.677750
v -54.883999 18.686079 -62.936882
v -59.581413 8.047355 -11.626087
v 85.768784 128.449356 -6.559762
v 39.673962 42.687366 31.893808
v 46.646885 61.547138 70.674004
v -46.475807 -156.148483 -85.528839
v -19.953180 83.826309 -62.938244
v 32.075031 24.396109 30.195837
v 62.619114 74.110596 74.197922
v 100.887962 -156.848495 -6.258929
v -46.615204 106.223305 -12.022615
v -128.137680 -138.483505 -32.266037
v -121.983276 -149.515671 -40.077354
v 51.034698 -157.219101 23.739567
v 37.570591 165.690796 20.615179
v -17.464020 89.190514 49.908100
v 45.975479 135.679047 51.432751
v 20.032909 79.677055 79.864624
v -123.004784 -54.673576 -2.356993
v -67.860641 -118.693108 76.412720
v -85.816162 -94.766663 3.383302
v 65.726433 99.181084 61.695641
v 95.276718 71.572189 -22.042881
v 49.378887 89.353851 -66.429810
v 77.176155 -77.198662 -53.349831
v -31.997717 -73.576271 -103.939621
v 73.197624 -160.021469 -8.296399
v 81.587875 -158.863251 5.680614
v -23.686052 -150.507660 -101.926109
v -21.676857 16.591997 -84.020042
v -14.949431 123.988014 -50.999660
v -45.554817 96.881660 -22.229658
v 81.061028 73.833633 59.551449
v 61.780109 -160.148849 -12.197318
v 69.140533 57.269920 -4.555995
v 6.744845 -39.379993 48.856991
v -19.955622 -113.931084 73.965126
v -0.899767 71.018562 57.668266
v 0.883543 85.302948 -75.993828
v 21.791740 -156.675293 40.818687
v -14.099078 114.424423 49.593903
v -64.465050 -29.337435 27.469965
v 50.262421 41.381325 7.134705
v 83.906761 -46.240768 -38.856976
v -7.543072 -64.139473 38.863350
v 87.234329 57.729588 -11.154449
v -16.611219 82.446388 -77.864555
v -1.889152 -109.395050 81.677605
v -88.058548 -29.579226 24.509365
v 52.487862 -111.694824 -64.402214
v 41.238979 -1.966218 -24.617432
v -8.205266 -158.274658 29.986309
v -29.934582 88.078209 -51.442284
v 20.337353 67.593864 57.296928
v 68.689964 -18.659248 -20.156485
v -47.624733 -114.385269 -89.870399
v 33.424656 25.581392 12.961070
v 65.956833 72.729584 59.223171
v 25.549280 -117.554962 48.243538
v 52.698326 58.072472 -63.279869
v 78.832680 40.609459 -16.656492
v -52.102283 -66.534836 -94.908463
v 1.524200 -115.554153 -121.187370
v -54.460529 -120.533417 98.498512
v 21.895235 -6.520509 -14.372108
v -43.016384 -61.984264 42.601482
v -70.411224 -103.296211 31.589600
v 119.058968 -91.624184 31.140734
v 26.696913 -59.887619 -104.003044
v 41.565483 102.644051 -71.605286
v -32.809628 -92.887856 89.883865
v -112.465897 -116.349800 -2.919476
v 54.473110 4.459915 -81.937752
v 55.396126 10.627111 -27.998003
v 66.295280 155.764297 -11.041876
v 80.318390 61.118530 44.796890
v -40.231594 112.230934 -48.955612
v -24.997707 121.790741 37.407181
v -39.782787 -33.797787 32.410263
v 117.650566 -109.654793 31.696173
v -51.083496 95.731728 20.195982
v 56.541965 139.492310 -50.236523
v 65.831917 -43.416851 11.172238
v 59.265038 121.837410 -58.603699
v 85.069649 -84.919228 -1.594327
v 5.696439 -47.886620 23.058296
v -35.662857 59.272705 33.623837
v 72.926613 84.178551 -48.555866
v -112.355156 -38.042221 11.636633
v -4.480840 42.133991 -73.123474
v 71.870422 110.829155 -42.397892
v 97.363739 -109.448593 -15.064395
v -15.583818 146.738510 -36.483574
v 59.365170 46.067291 -3.696703
v 19.837261 1.345893 -100.719002
v -38.175182 86.193596 27.775669
v 71.440590 -160.632660 -29.456566
v 70.327072 87.218887 -66.513405
v 89.886620 88.908569 -0.399692
v 44.498447 -50.894547 -1.856835
v 38.095192 -158.739288 -14.992558
v 39.384964 -65.097397 15.728538
v 71.547050 133.275345 -40.985870
v 7.488533 136.195770 -59.212776
v 26.645254 89.813782 75.258408
v 25.611448 92.073868 -73.252167
v 87.000015 101.334076 36.955383
v -41.063354 57.765862 -41.702904
v 66.756851 35.061844 -38.234108
v -95.781845 -132.772522 23.995234
v 0.514908 9.438134 3.121481
v 97.043335 -121.458954 2.371786
v -122.289619 -151.998199 -26.418377
v -67.184044 -87.743095 53.595894
v 19.781883 -142.694946 -129.610641
v 4.625182 136.055283 49.163681
v -12.639641 65.024956 -85.949768
v 40.730583 44.657619 -44.317719
v -101.143425 -115.808876 10.653309
v 25.069229 -101.158676 -106.331146
v -50.155197 -103.484978 -92.854012
v 87.764778 -115.757843 -26.938326
v -38.816147 119.926086 -16.465397
v 45.689175 -10.504328 -1.085820
v 23.119236 -92.593262 23.381643
v 61.966125 -64.447411 -91.922745
v 45.676815 -85.765419 14.153060
v 8.948505 -68.748863 89.418716
v -99.168060 -10.806439 1.507580
v -37.372360 49.706661 -35.867146
v 70.936707 54.585457 49.095398
v 111.002403 -110.188950 4.520367
v -47.213833 76.935364 -36.311886
v -84.135658 -55.956490 34.650043
v -96.935905 -111.440872 -37.521797
v 46.225712 22.414867 -0.621491
v 47.050388 2.157848 -96.245049
v 9.071884 149.961899 32.384277
v 74.749451 -86.535446 1.391879
v 58.104977 151.989471 -35.921028
v 34.061340 -1.989403 -36.146706
v 13.829737 60.794769 -63.549652
v -31.184242 -39.770248 33.397869
v 69.975105 152.089020 5.423701
v 40.738480 92.350296 70.386131
v -14.064075 155.198776 1.632634
v 22.387188 14.299731 -33.359974
v -35.253017 -66.527672 62.193195
v -31.327768 -158.220413 41.949715
v 39.403347 -23.317724 -14.895028
v 45.652256 -117.332062 76.920753
v 41.454330 48.567440 -62.794086
v 31.533268 39.615952 -36.917999
v -75.657463 -117.273155 57.767914
v 82.774704 -54.493729 5.907844
v 8.009903 83.961830 65.234673
v 6.600568 -50.621502 76.814453
v 24.052580 -90.154457 41.047611
v -106.976013 -92.103783 18.222023
v 64.016304 118.523300 48.381660
v -92.571838 -111.722595 -50.657227
v 38.589142 -10.262041 -25.474646
v -21.566332 -33.479736 48.442268
v -30.701689 18.295830 -15.034882
v 82.777840 -112.230400 53.692108
v -50.351250 125.908104 0.817188
v 71.387260 -148.221725 -52.133926
v -14.574970 38.615700 -76.188858
v -112.710976 -19.517008 -33.032314
v 29.328333 -84.768387 69.823792
v -43.055763 -78.424431 65.758614
v 37.415718 72.761902 65.540886
v 94.023827 87.422798 28.361652
v 82.474648 -160.203995 -17.600927
v -27.257067 58.905869 -5.319762
v -0.785855 -55.929817 85.685944
v -33.373211 124.005188 20.529751
v 16.355188 -69.124702 25.038797
v -104.228142 -157.602142 1.794083
v 15.810639 39.274662 -60.484768
v -10.004083 -53.355518 59.294518
v 64.835793 50.616982 -40.174652
v 91.185417 -92.119713 50.590549
v 72.210457 69.499847 -54.060711
v 3.633860 69.775780 47.650589
v 52.151310 82.821503 73.909866
v 1.797191 114.898323 -64.469139
v -85.543259 -111.585365 1.873464
v -25.962685 -112.862038 -101.185272
v 61.694805 -13.567655 -63.754841
v -47.091934 79.918205 -4.557146
v 82.769852 61.197666 -32.501900
v 37.109035 -71.155739 -91.505783
v 41.513321 69.120865 -66.602333
v -31.368923 57.037384 -20.280968
v -31.900478 117.880836 -35.129078
v -54.005085 86.222885 12.133702
v -19.875229 -157.889175 22.597551
v -40.419315 78.677048 -47.161903
v -11.300869 75.023438 50.674820
v 21.297956 50.870083 -52.696972
v 89.961189 -113.296730 -7.453865
v -22.828405 100.804153 -54.889225
v -39.342354 108.943771 18.776249
v 18.151024 65.979744 64.547058
v 64.297729 13.707614 -8.730696
v 91.240494 78.701553 -10.846906
v -57.295723 -43.992161 25.863831
v 34.237137 12.360941 -18.245754
v 89.039543 52.971901 -22.956610
v 43.886391 -99.612717 -76.101112
v 64.290512 -23.795349 -94.466026
v 9.325908 -90.315819 99.740822
v 26.232542 141.076874 52.070660
v -49.551361 111.653282 -1.455419
v 15.601638 -157.780060 27.058811
v -45.911037 34.340614 -35.737534
v -58.935825 -57.778580 28.237637
v -0.342345 163.766266 -13.123660
v -10.186851 -48.837711 68.610916
v -7.652181 97.699242 62.667572
v 24.253580 -157.019165 19.684006
v 66.558006 -86.724808 -63.415604
v 11.527999 163.236145 17.969759
v -17.296715 -88.397957 84.770622
v -26.879316 144.021622 -14.077238
v 46.891987 91.874687 -77.569550
v 65.495346 -93.394402 -35.512280
v 77.512993 90.954247 58.020908
v -19.460630 -148.474319 24.725624
v -21.712725 75.400070 37.825787
v -3.673767 -87.318733 93.078407
v 89.415901 65.183823 -43.579556
v 34.211262 143.031433 -57.457993
v 5.742713 -79.169312 87.858498
v -111.791153 -114.747086 -46.690517
v 62.973064 102.381950 -55.739632
v -36.506031 70.792068 9.550052
v -28.255266 49.657471 -64.564308
v 18.713037 -59.896610 77.278625
v 15.506924 -84.859833 51.846203
v 95.154846 -156.410934 -20.764885
v -61.116646 -62.597164 45.409847
v 34.151363 -159.430496 19.683315
v 20.835888 -84.895622 73.245941
v -25.407507 -65.010559 45.100243
v -43.504738 112.281837 38.097740
v -22.313753 110.963768 -49.445827
v 83.563942 79.476997 43.906574
v 53.512535 80.980247 -68.916336
v -6.748200 -148.778046 27.443720
v 45.872166 23.532770 -38.976627
v 81.118988 -86.857292 -30.596033
v 18.170761 -70.316933 53.749344
v 95.134995 69.750076 -39.849468
v -47.450306 104.349228 -40.262325
v 89.087257 57.072468 8.595134
v 71.560699 -113.566200 16.292324
v -11.174963 66.062859 59.663677
v 44.801487 -13.440134 -102.870613
v 48.918560 37.418236 -39.325401
v 71.210098 -44.594116 -89.086548
v 61.811707 -148.293839 -11.298584
v 10.222835 -43.900551 60.216881
v 81.203133 52.544365 -42.943844
v 51.714649 -148.506058 -24.309347
v -6.720553 -148.646225 43.163811
v -37.213615 86.896935 49.932159
v 78.902527 134.736633 16.585608
v -6.216987 -44.170692 71.054642
v -37.605713 -54.122051 40.417255
v 55.640388 -89.889626 -51.589779
v 27.082254 54.809799 -67.121674
v 86.790260 46.422039 -13.690857
v 33.849617 -112.172150 -96.850044
v 52.651691 -159.589355 -4.161647
v -28.239010 105.725151 36.450432
v -18.605000 -148.656281 37.777878
v -116.787285 -68.109528 -21.112694
v -49.000668 -92.628494 61.509140
v 107.048943 -122.294655 -6.634271
v 13.527312 59.302032 -79.874168
v 27.664953 -116.612404 -124.836304
v -55.346668 80.992973 27.283554
v 91.503235 -68.308678 -23.134806
v -20.411526 -158.555313 38.532814
v -76.609787 -113.261566 23.908644
v 7.663930 55.950249 -73.158745
v -97.210953 -114.495300 -15.544737
v -99.120354 -88.844765 -13.121009
v -47.719296 110.803741 -31.739948
v -34.116219 132.864410 1.407398
v 56.033367 -87.141121 -1.611199
v -102.118202 -84.207275 -5.355552
v -39.350327 69.476341 25.707018
v -108.092850 -56.342125 25.434048
v 35.775803 -98.697075 44.269764
v 87.897881 84.116631 -47.858898
v -115.379250 -125.597870 -35.774796
v -22.453537 96.274353 -69.627335
v 53.227409 -148.178421 -1.672757
v 89.385551 69.214569 13.344482
v 36.601158 60.936249 -68.377022
v 54.585041 -73.579796 -1.494496
v -42.830486 62.728558 -9.342860
v -50.264542 73.594910 15.649966
v 71.517052 -148.397430 -29.646400
v 0.638678 -80.740158 32.687592
v 49.016167 -79.954689 -70.583672
v -31.368937 -87.988647 73.996948
v -43.449436 64.240997 -23.251394
v 20.807659 -56.593739 62.476238
v -96.660042 -58.205730 27.627974
v 97.071175 -89.118797 -8.254712
v 6.250090 -87.849174 92.326813
v 9.137564 78.607361 -77.101654
v -118.140541 -116.098274 -18.534822
v 84.225220 79.424271 -25.154543
v 25.211596 78.889702 -72.804619
v 33.357075 87.870201 -82.972168
v -34.621258 74.248123 -0.151310
v 78.694717 -160.435883 -36.326534
v 73.659355 46.092182 -32.520435
v -15.546919 104.522148 -70.555740
v 54.334702 70.343636 -63.681953
v -5.438846 77.834335 -84.068962
v 6.291979 48.016800 -65.740829
v 24.026457 73.969048 -77.130287
v 81.838966 -148.351639 -15.586736
v 71.504730 -148.525528 -6.595770
v 41.515945 -149.986389 11.927574
f 182 181 127
f 11 66 134
f 198 225 232
f 78 10 73
f 314 178 191
f 284 83 136
f 89 418 245
f 422 483 261
f 356 273 144
f 11 62 66
f 439 345 326
f 184 17 50
f 349 370 316
f 455 165 75
f 444 289 380
f 486 458 405
f 467 402 257
f 226 173 177
f 122 373 265
f 245 3 89
f 204 443 215
f 473 296 462
f 41 38 59
f 51 347 271
f 464 256 154
f 275 488 485
f 356 200 273
f 305 212 106
f 228 29 152
f 203 155 266
f 96 426 215
f 119 70 29
f 119 29 320
f 79 367 35
f 29 228 320
f 207 18 354
f 454 168 324
f 398 418 276
f 79 120 385
f 120 391 385
f 183 413 36
f 307 383 393
f 117 173 106
f 42 104 260
f 115 270 33
f 226 84 305
f 36 203 196
f 176 16 97
f 182 49 175
f 372 222 114
f 280 78 48
f 44 87 43
f 300 227 3
f 370 105 316
f 277 364 480
f 464 407 43
f 57 334 123
f 298 12 19
f 20 21 10
f 43 87 63
f 131 314 191
f 390 325 40
f 22 82 223
f 143 452 25
f 493 9 469
f 493 356 9
f 437 154 141
f 399 455 221
f 65 217 206
f 343 203 266
f 73 34 234
f 196 343 197
f 197 343 179
f 383 184 393
f 138 408 150
f 136 115 142
f 178 227 74
f 178 174 227
f 453 464 265
f 311 496 457
f 354 18 15
f 256 43 154
f 154 43 63
f 198 284 142
f 474 490 360
f 327 339 31
f 498 499 196
f 115 76 155
f 104 487 424
f 152 26 52
f 18 428 63
f 257 406 260
f 277 480 302
f 329 398 23
f 87 44 18
f 360 480 474
f 228 123 320
f 207 428 18
f 144 208 9
f 487 192 361
f 89 91 471
f 182 175 111
f 124 167 201
f 339 410 423
f 172 438 108
f 84 48 305
f 165 221 209
f 339 409 414
f 102 282 348
f 170 299 150
f 102 7 159
f 259 349 163
f 334 57 249
f 7 348 166
f 6 84 129
f 13 27 72
f 62 448 459
f 474 364 344
f 107 173 8
f 240 130 394
f 6 48 84
f 6 280 48
f 466 327 31
f 360 490 407
f 17 186 329
f 341 187 82
f 263 2 204
f 22 8 3
f 123 228 52
f 105 78 316
f 8 15 107
f 4 448 338
f 274 187 314
f 373 346 384
f 99 165 209
f 386 171 333
f 384 335 180
f 269 293 319
f 223 8 22
f 94 85 324
f 24 75 93
f 411 179 343
f 395 262 292
f 78 73 316
f 85 28 252
f 226 177 129
f 73 234 316
f 377 387 235
f 458 241 288
f 444 143 25
f 369 63 428
f 129 84 226
f 447 420 436
f 30 31 339
f 314 355 178
f 95 234 34
f 8 173 117
f 106 226 305
f 242 316 359
f 230 379 443
f 345 153 297
f 1 59 38
f 8 117 3
f 51 269 95
f 207 354 325
f 460 365 425
f 87 18 63
f 318 367 455
f 455 221 139
f 162 194 113
f 398 74 202
f 393 184 137
f 117 91 3
f 227 22 3
f 259 199 337
f 117 106 212
f 209 385 413
f 223 82 374
f 212 263 117
f 113 431 162
f 142 115 33
f 99 145 165
f 481 339 128
f 249 237 352
f 373 14 250
f 447 399 455
f 444 148 289
f 317 340 5
f 342 98 276
f 3 245 300
f 202 227 300
f 197 281 183
f 332 350 389
f 105 322 421
f 58 247 307
f 375 224 243
f 260 272 42
f 402 424 361
f 3 91 89
f 385 391 413
f 366 14 360
f 426 471 91
f 475 407 464
f 36 470 203
f 400 369 185
f 30 92 382
f 432 476 203
f 109 296 160
f 81 133 27
f 80 70 130
f 135 412 387
f 50 108 438
f 323 189 132
f 481 326 409
f 446 247 416
f 340 412 303
f 307 393 58
f 347 477 294
f 27 429 72
f 44 156 18
f 233 67 189
f 350 128 214
f 156 6 129
f 15 129 107
f 127 468 405
f 367 79 385
f 129 173 107
f 16 176 216
f 329 191 398
f 377 68 387
f 344 490 474
f 349 259 496
f 77 168 454
f 160 294 466
f 217 65 152
f 82 22 341
f 219 444 380
f 18 129 15
f 354 8 223
f 383 186 17
f 184 383 17
f 207 118 428
f 184 50 137
f 390 369 118
f 462 296 109
f 88 190 459
f 109 308 462
f 363 497 488
f 447 455 318
f 24 159 318
f 399 367 221
f 109 160 352
f 212 305 263
f 290 231 195
f 70 80 217
f 50 17 329
f 61 389 439
f 399 420 221
f 308 483 254
f 398 191 74
f 217 80 103
f 85 263 305
f 194 162 213
f 108 23 276
f 108 329 23
f 42 172 146
f 159 35 318
f 409 326 345
f 437 141 185
f 141 400 185
f 42 272 172
f 357 288 100
f 479 240 394
f 440 235 415
f 45 4 38
f 415 317 350
f 243 230 375
f 153 345 5
f 361 192 379
f 103 449 132
f 312 255 21
f 213 77 454
f 366 360 407
f 71 441 397
f 433 439 326
f 262 273 200
f 92 30 414
f 100 456 357
f 98 342 146
f 414 30 339
f 272 260 253
f 149 340 303
f 382 92 401
f 288 279 100
f 50 244 137
f 312 248 377
f 396 193 489
f 237 483 308
f 189 67 132
f 130 382 401
f 475 366 407
f 98 146 172
f 294 327 466
f 447 221 455
f 466 31 160
f 160 296 294
f 336 411 491
f 469 222 372
f 133 264 429
f 299 386 333
f 222 368 124
f 158 360 14
f 215 268 96
f 320 334 31
f 394 401 153
f 130 401 394
f 125 120 270
f 59 170 199
f 114 246 372
f 497 363 472
f 122 416 373
f 307 247 285
f 7 166 182
f 126 1 19
f 390 40 210
f 137 309 47
f 281 197 179
f 350 5 389
f 441 71 219
f 85 375 2
f 145 93 75
f 199 81 59
f 59 1 170
f 152 99 26
f 365 460 292
f 268 471 96
f 133 81 199
f 202 245 418
f 262 365 292
f 372 246 417
f 97 222 176
f 243 112 220
f 325 374 187
f 482 134 149
f 270 115 155
f 138 368 97
f 397 422 71
f 498 343 196
f 406 257 267
f 85 305 293
f 333 116 157
f 229 39 164
f 159 7 35
f 425 246 114
f 222 124 114
f 150 199 170
f 468 181 60
f 392 295 113
f 139 436 165
f 144 273 239
f 436 139 221
f 429 27 133
f 432 196 203
f 391 120 413
f 425 124 201
f 1 126 170
f 176 222 469
f 286 495 457
f 430 164 278
f 37 34 21
f 102 159 24
f 101 41 231
f 443 204 2
f 88 459 121
f 195 81 27
f 463 190 328
f 41 59 81
f 144 239 275
f 261 56 422
f 247 346 416
f 41 195 231
f 26 123 52
f 41 81 195
f 315 346 58
f 272 253 251
f 147 93 145
f 196 203 343
f 162 140 213
f 206 217 103
f 286 337 408
f 13 289 148
f 401 92 404
f 29 217 152
f 211 68 377
f 70 217 29
f 388 137 47
f 323 132 46
f 183 36 197
f 31 70 119
f 31 119 320
f 334 320 123
f 281 99 183
f 334 352 160
f 129 18 156
f 149 283 340
f 412 135 303
f 211 377 248
f 21 20 248
f 426 96 471
f 103 67 206
f 68 135 387
f 179 450 281
f 293 331 319
f 301 249 57
f 440 377 235
f 12 126 19
f 347 51 37
f 312 21 248
f 9 208 176
f 280 44 116
f 387 412 235
f 472 494 229
f 67 65 206
f 440 151 312
f 267 419 193
f 230 492 361
f 67 145 65
f 477 347 151
f 57 123 26
f 45 101 110
f 479 449 240
f 221 165 139
f 346 247 58
f 116 44 344
f 21 255 37
f 448 121 459
f 315 58 393
f 121 4 45
f 408 138 16
f 405 49 127
f 32 19 338
f 72 238 13
f 232 225 358
f 357 88 458
f 500 413 36
f 38 101 45
f 101 38 41
f 151 214 477
f 407 344 43
f 72 431 295
f 337 150 408
f 175 7 111
f 182 282 181
f 252 28 324
f 5 340 153
f 120 33 270
f 355 341 174
f 454 254 422
f 476 435 155
f 77 213 69
f 147 24 93
f 49 225 175
f 417 493 372
f 120 36 413
f 111 7 182
f 85 94 375
f 367 385 221
f 49 161 225
f 35 33 120
f 147 233 189
f 161 290 225
f 467 424 402
f 445 36 270
f 198 142 33
f 197 36 196
f 144 275 208
f 476 155 266
f 97 16 138
f 270 155 445
f 233 145 67
f 117 263 204
f 192 487 376
f 145 75 165
f 175 35 7
f 293 269 28
f 30 382 31
f 382 70 31
f 215 443 379
f 143 444 219
f 342 89 471
f 52 228 152
f 86 403 273
f 31 334 160
f 487 361 424
f 183 99 209
f 427 57 26
f 258 188 465
f 2 375 230
f 26 99 281
f 427 26 281
f 171 126 12
f 469 9 176
f 48 378 305
f 276 98 108
f 249 352 334
f 253 239 403
f 450 371 281
f 249 301 237
f 204 426 91
f 243 224 112
f 134 328 149
f 483 301 261
f 432 499 196
f 71 291 54
f 104 467 257
f 287 430 421
f 136 83 115
f 339 423 128
f 421 243 220
f 410 327 294
f 201 460 425
f 371 450 291
f 54 219 71
f 330 49 405
f 275 239 489
f 105 370 322
f 131 40 274
f 378 105 421
f 331 112 310
f 287 421 322
f 399 447 221
f 240 103 130
f 94 168 224
f 131 329 186
f 354 223 325
f 329 131 191
f 174 178 355
f 293 28 85
f 341 314 187
f 355 314 341
f 395 461 315
f 284 136 142
f 50 438 313
f 74 227 202
f 346 373 416
f 173 129 177
f 441 219 380
f 22 174 341
f 324 85 252
f 182 127 49
f 118 325 390
f 131 274 314
f 313 244 50
f 149 303 482
f 51 34 37
f 86 262 388
f 271 269 51
f 37 255 347
f 277 138 150
f 229 287 321
f 68 218 90
f 193 396 239
f 481 433 326
f 66 463 328
f 279 288 241
f 473 271 296
f 185 210 446
f 308 473 462
f 233 147 145
f 28 254 324
f 186 383 131
f 28 308 254
f 276 418 342
f 47 86 388
f 347 255 151
f 131 383 40
f 210 247 446
f 446 437 185
f 250 453 265
f 74 191 178
f 207 325 118
f 457 496 337
f 154 63 400
f 140 381 359
f 316 234 310
f 310 234 331
f 95 269 319
f 499 498 196
f 61 433 64
f 433 61 439
f 271 473 269
f 388 315 393
f 28 269 473
f 345 439 389
f 454 194 213
f 5 345 389
f 195 358 225
f 352 237 308
f 153 401 404
f 449 236 46
f 70 382 130
f 148 452 232
f 54 291 450
f 267 193 406
f 168 77 224
f 50 329 108
f 332 389 61
f 108 98 172
f 65 145 152
f 215 376 268
f 349 316 163
f 215 192 376
f 202 300 245
f 292 180 335
f 183 209 413
f 94 324 168
f 297 404 414
f 214 128 423
f 153 404 297
f 347 294 271
f 294 296 271
f 291 71 56
f 410 339 327
f 163 316 242
f 132 449 46
f 64 433 205
f 500 125 36
f 188 11 465
f 257 260 104
f 357 456 236
f 485 451 457
f 424 467 104
f 397 441 194
f 362 295 392
f 443 2 230
f 35 120 79
f 112 224 69
f 481 205 433
f 224 77 69
f 431 72 381
f 214 423 410
f 409 339 481
f 477 214 410
f 409 297 414
f 477 410 294
f 454 324 254
f 194 454 422
f 422 397 194
f 357 190 88
f 483 422 254
f 117 204 91
f 277 299 364
f 411 450 179
f 376 487 104
f 379 192 215
f 164 53 351
f 373 250 265
f 316 310 359
f 140 112 69
f 214 151 440
f 180 292 201
f 422 56 71
f 292 461 395
f 338 448 188
f 287 442 321
f 392 194 441
f 268 146 342
f 313 438 172
f 494 39 229
f 144 9 356
f 42 376 104
f 146 268 376
f 485 488 497
f 268 342 471
f 363 419 494
f 363 494 472
f 460 201 292
f 286 457 337
f 351 278 164
f 496 259 337
f 491 411 343
f 458 486 241
f 430 278 421
f 336 115 143
f 391 120 413
f 238 72 295
f 478 441 380
f 452 284 169
f 169 198 232
f 198 169 284
f 452 83 284
f 54 450 411
f 19 1 338
f 195 13 148
f 208 485 495
f 497 451 485
f 495 485 457
f 44 43 344
f 16 216 286
f 216 495 286
f 286 408 16
f 135 68 90
f 134 465 11
f 133 199 264
f 306 429 264
f 4 338 38
f 118 369 428
f 161 330 110
f 289 362 380
f 193 239 406
f 39 353 53
f 164 39 53
f 275 489 488
f 493 417 200
f 154 437 464
f 469 372 493
f 333 10 116
f 489 239 396
f 167 158 201
f 275 485 208
f 128 205 481
f 13 238 289
f 442 497 472
f 493 200 356
f 386 126 171
f 325 274 40
f 368 222 97
f 357 236 190
f 236 55 190
f 189 100 279
f 381 429 306
f 24 279 102
f 223 374 325
f 346 335 384
f 60 102 279
f 60 486 468
f 19 32 298
f 13 195 27
f 110 231 290
f 488 489 363
f 214 440 415
f 369 390 185
f 277 368 138
f 364 157 344
f 283 149 55
f 340 317 412
f 101 231 110
f 62 188 448
f 188 62 11
f 189 323 100
f 34 10 21
f 333 20 10
f 128 350 332
f 82 187 374
f 480 360 167
f 32 258 298
f 328 134 66
f 468 486 405
f 427 281 57
f 140 162 431
f 6 156 280
f 446 122 437
f 282 182 166
f 305 378 293
f 331 378 220
f 378 331 293
f 171 20 333
f 95 331 234
f 338 1 38
f 73 10 34
f 331 95 319
f 214 415 350
f 135 90 303
f 309 403 47
f 283 236 449
f 388 262 395
f 122 446 416
f 68 211 218
f 301 371 261
f 384 14 373
f 169 232 452
f 476 432 266
f 437 265 464
f 202 418 398
f 151 255 312
f 122 265 437
f 145 99 152
f 309 137 244
f 420 447 221
f 285 210 40
f 325 187 274
f 306 264 163
f 262 200 365
f 10 78 116
f 158 180 201
f 386 299 126
f 100 46 456
f 227 174 22
f 2 263 85
f 95 34 51
f 371 291 261
f 264 199 259
f 301 483 237
f 299 277 150
f 124 425 114
f 333 157 299
f 412 317 235
f 299 157 364
f 158 14 180
f 490 344 407
f 340 449 479
f 369 400 63
f 14 366 250
f 346 315 461
f 167 124 302
f 14 384 180
f 461 335 346
f 210 185 390
f 405 304 330
f 404 92 414
f 218 211 12
f 475 453 366
f 453 250 366
f 137 388 393
f 285 247 210
f 20 171 12
f 12 211 20
f 243 421 278
f 479 153 340
f 335 461 292
f 310 112 359
f 193 363 489
f 348 7 102
f 277 302 368
f 291 56 261
f 156 44 280
f 124 368 302
f 262 86 273
f 306 163 242
f 246 425 365
f 365 417 246
f 200 417 365
f 359 112 140
f 315 388 395
f 309 251 403
f 251 253 403
f 86 47 403
f 148 444 452
f 253 406 239
f 309 244 272
f 150 337 199
f 267 494 419
f 60 279 241
f 219 54 143
f 287 229 164
f 351 492 278
f 251 309 272
f 496 311 370
f 349 496 370
f 363 193 419
f 442 472 321
f 321 472 229
f 322 370 287
f 76 115 336
f 88 304 458
f 257 39 267
f 39 494 267
f 353 39 257
f 257 53 353
f 53 402 434
f 230 278 492
f 379 230 361
f 426 204 215
f 64 128 332
f 264 259 163
f 141 154 400
f 381 140 431
f 78 280 116
f 72 429 381
f 295 431 113
f 306 242 381
f 230 243 278
f 54 336 143
f 336 54 411
f 175 225 198
f 166 348 282
f 105 378 48
f 318 35 367
f 155 491 266
f 75 24 318
f 139 165 455
f 295 362 238
f 298 258 218
f 456 46 236
f 288 357 458
f 465 90 258
f 90 218 258
f 46 100 323
f 440 312 377
f 40 383 285
f 132 67 103
f 5 350 317
f 240 449 103
f 12 298 218
f 495 216 208
f 299 170 126
f 167 360 158
f 32 338 188
f 458 304 405
f 258 32 188
f 358 148 232
f 121 45 88
f 45 304 88
f 60 241 486
f 328 190 55
f 149 328 55
f 55 236 283
f 482 90 465
f 330 161 49
f 304 110 330
f 110 304 45
f 340 283 449
f 468 127 181
f 238 362 289
f 358 195 148
f 83 452 143
f 432 196 203
f 362 478 380
f 478 362 392
f 478 392 441
f 491 76 336
f 343 266 491
f 235 317 415
f 125 36 120
f 90 482 303
f 285 383 307
f 398 276 23
f 256 464 43
f 464 453 475
f 208 216 176
f 20 211 248
f 376 42 146
f 448 4 121
f 147 279 24
f 209 221 385
f 103 80 130
f 161 110 290
f 445 155 203
f 36 125 270
f 402 53 257
f 244 313 172
f 480 167 302
f 260 406 253
f 444 25 452
f 272 244 172
f 430 287 164
f 345 297 409
f 418 89 342
f 239 273 403
f 190 463 459
f 64 205 128
f 457 451 497
f 442 457 497
f 311 457 442
f 394 153 479
f 112 331 220
f 470 445 270
f 66 62 459
f 463 66 459
f 442 370 311
f 290 195 225
f 194 392 113
f 442 287 370
f 57 281 371
f 344 157 116
f 173 226 106
f 78 105 48
f 421 220 378
f 155 76 491
f 15 8 354
f 109 352 308
f 434 351 53
f 115 83 143
f 69 213 140
f 282 102 181
f 102 60 181
f 189 279 147
f 474 480 364
f 381 242 359
f 436 420 221
f 134 482 465
f 175 33 35
f 351 434 492
f 28 473 308
f 434 402 361
f 57 371 301
f 332 61 64
f 33 175 198
f 492 434 361
f 224 375 94
f 318 455 75
f 455 367 221
f 476 203 266
f 432 499 196
f 432 203 266
f 476 155 266
f 500 36 413
f 125 500 36
f 391 120 413
f 470 36 445
f 203 470 445
f 470 270 445
f 436 139 165
f 436 221 139
f 436 447 221
f 420 399 367
f 367 420 221
f 455 318 447
